<svg width="9" height="14" viewBox="0 0 9 14" fill="none" xmlns="http://www.w3.org/2000/svg">
<g clip-path="url(#clip0_72_6)">
<path d="M0.820312 7.06445C0.82487 6.92318 0.852214 6.79329 0.902344 6.6748C0.957031 6.55632 1.03906 6.44238 1.14844 6.33301L6.41211 1.18555C6.58529 1.01237 6.7972 0.925781 7.04785 0.925781C7.22103 0.925781 7.37598 0.966797 7.5127 1.04883C7.65397 1.13086 7.76562 1.24251 7.84766 1.38379C7.93424 1.52051 7.97754 1.67318 7.97754 1.8418C7.97754 2.09701 7.88184 2.32031 7.69043 2.51172L3.00781 7.06445L7.69043 11.6172C7.88184 11.8132 7.97754 12.0365 7.97754 12.2871C7.97754 12.4603 7.93424 12.6152 7.84766 12.752C7.76562 12.8887 7.65397 12.998 7.5127 13.0801C7.37598 13.1621 7.22103 13.2031 7.04785 13.2031C6.7972 13.2031 6.58529 13.1165 6.41211 12.9434L1.14844 7.7959C1.03451 7.68652 0.950195 7.57259 0.895508 7.4541C0.845378 7.33105 0.820312 7.20117 0.820312 7.06445Z" fill="#4F4F4F"/>
</g>
<defs>
<clipPath id="clip0_72_6">
<rect width="9" height="14" fill="white"/>
</clipPath>
</defs>
</svg>
