<svg width="9" height="15" viewBox="0 0 9 15" fill="none" xmlns="http://www.w3.org/2000/svg">
<path d="M0 7.01562C0.00520833 6.85417 0.0364583 6.70573 0.09375 6.57031C0.15625 6.4349 0.25 6.30469 0.375 6.17969L6.39062 0.296875C6.58854 0.0989583 6.83073 0 7.11719 0C7.3151 0 7.49219 0.046875 7.64844 0.140625C7.8099 0.234375 7.9375 0.361979 8.03125 0.523438C8.13021 0.679688 8.17969 0.854167 8.17969 1.04688C8.17969 1.33854 8.07031 1.59375 7.85156 1.8125L2.5 7.01562L7.85156 12.2188C8.07031 12.4427 8.17969 12.6979 8.17969 12.9844C8.17969 13.1823 8.13021 13.3594 8.03125 13.5156C7.9375 13.6719 7.8099 13.7969 7.64844 13.8906C7.49219 13.9844 7.3151 14.0312 7.11719 14.0312C6.83073 14.0312 6.58854 13.9323 6.39062 13.7344L0.375 7.85156C0.244792 7.72656 0.148438 7.59635 0.0859375 7.46094C0.0286458 7.32031 0 7.17188 0 7.01562Z" fill="white"/>
</svg>
