<svg width="9" height="15" viewBox="0 0 9 15" fill="none" xmlns="http://www.w3.org/2000/svg">
<path d="M8.17969 7.01562C8.17448 6.85417 8.14323 6.70573 8.08594 6.57031C8.02344 6.4349 7.92969 6.30469 7.80469 6.17969L1.78906 0.296875C1.59115 0.0989583 1.34896 0 1.0625 0C0.864583 0 0.6875 0.046875 0.53125 0.140625C0.369792 0.234375 0.242188 0.361979 0.148438 0.523438C0.0494792 0.679688 0 0.854167 0 1.04688C0 1.33854 0.109375 1.59375 0.328125 1.8125L5.67969 7.01562L0.328125 12.2188C0.109375 12.4427 0 12.6979 0 12.9844C0 13.1823 0.0494792 13.3594 0.148438 13.5156C0.242188 13.6719 0.369792 13.7969 0.53125 13.8906C0.6875 13.9844 0.864583 14.0312 1.0625 14.0312C1.34896 14.0312 1.59115 13.9323 1.78906 13.7344L7.80469 7.85156C7.9349 7.72656 8.03125 7.59635 8.09375 7.46094C8.15104 7.32031 8.17969 7.17188 8.17969 7.01562Z" fill="white"/>
</svg>
