<svg width="37" height="26" viewBox="0 0 37 26" fill="none" xmlns="http://www.w3.org/2000/svg">
<path d="M30.0102 15.8652C30.4307 15.8652 30.8452 15.8346 31.2486 15.7652V21.3554C31.2486 24.1899 29.8038 25.6209 27.3407 25.6209H4.32057C1.44478 25.6209 0 24.2037 0 21.3554V10.0723H21.7006C22.9507 13.4497 26.2097 15.8652 30.0102 15.8652ZM10.6913 1.45866L11.5307 2.14665C12.2187 2.73832 12.7829 2.95848 13.7186 2.95848H22.127C21.4914 4.16829 21.135 5.54124 21.135 6.99011C21.135 7.42563 21.1667 7.85405 21.2386 8.26978H0V4.58214C0 1.81642 1.38974 0.44043 3.79771 0.44043H7.71919C9.08142 0.44043 9.78324 0.688119 10.6913 1.45866Z" fill="black"/>
<path d="M37 6.98999C37 10.8152 33.794 13.98 30.0101 13.98C26.171 13.98 23.02 10.8427 23.02 6.98999C23.02 3.16477 26.171 0 30.0101 0C33.8353 0 37 3.16477 37 6.98999ZM29.1569 3.46748V6.15065H26.4738C25.9647 6.15065 25.6344 6.48088 25.6344 6.98999C25.6344 7.51287 25.9647 7.8431 26.4738 7.8431H29.1569V10.5263C29.1569 11.0354 29.4872 11.3794 30.0101 11.3794C30.5192 11.3794 30.8494 11.0354 30.8494 10.5263V7.8431H33.5326C34.0417 7.8431 34.3856 7.51287 34.3856 6.98999C34.3856 6.48088 34.0417 6.15065 33.5326 6.15065H30.8494V3.46748C30.8494 2.95836 30.5192 2.62813 30.0101 2.62813C29.4872 2.62813 29.1569 2.95836 29.1569 3.46748Z" fill="black"/>
</svg>
