<svg width="13" height="14" viewBox="0 0 13 14" fill="none" xmlns="http://www.w3.org/2000/svg">
<path d="M3.9375 2.67578V1.5918C3.9375 1.15039 4.07227 0.802734 4.3418 0.548828C4.61523 0.291016 4.98633 0.162109 5.45508 0.162109H7.67578C8.14453 0.162109 8.51367 0.291016 8.7832 0.548828C9.05664 0.802734 9.19336 1.15039 9.19336 1.5918V2.67578H8.13867V1.65039C8.13867 1.50195 8.0918 1.38281 7.99805 1.29297C7.9043 1.20313 7.77734 1.1582 7.61719 1.1582H5.51953C5.35938 1.1582 5.23242 1.20313 5.13867 1.29297C5.04492 1.38281 4.99805 1.50195 4.99805 1.65039V2.67578H3.9375ZM1.33594 3.37305C1.21875 3.37305 1.11523 3.33008 1.02539 3.24414C0.939453 3.1543 0.896484 3.04883 0.896484 2.92773C0.896484 2.81055 0.939453 2.70898 1.02539 2.62305C1.11523 2.5332 1.21875 2.48828 1.33594 2.48828H11.8066C11.9277 2.48828 12.0312 2.53125 12.1172 2.61719C12.2031 2.70313 12.2461 2.80664 12.2461 2.92773C12.2461 3.04883 12.2031 3.1543 12.1172 3.24414C12.0312 3.33008 11.9277 3.37305 11.8066 3.37305H1.33594ZM10.9336 3.25L10.5527 11.9336C10.5371 12.2969 10.4238 12.5762 10.2129 12.7715C10.0059 12.9668 9.7207 13.0645 9.35742 13.0645H3.78516C3.42578 13.0645 3.14062 12.9668 2.92969 12.7715C2.72266 12.5762 2.61133 12.2969 2.5957 11.9336L2.21484 3.25H10.9336ZM4.7168 11.3887C4.83008 11.3887 4.91992 11.3574 4.98633 11.2949C5.05273 11.2285 5.08398 11.1445 5.08008 11.043L4.9043 4.65625C4.90039 4.55469 4.86328 4.47266 4.79297 4.41016C4.72656 4.34766 4.64258 4.31641 4.54102 4.31641C4.42773 4.31641 4.33789 4.34961 4.27148 4.41602C4.20508 4.47852 4.17188 4.56055 4.17188 4.66211L4.35352 11.043C4.35352 11.1484 4.38672 11.2324 4.45312 11.2949C4.52344 11.3574 4.61133 11.3887 4.7168 11.3887ZM6.57422 11.3887C6.68359 11.3887 6.77344 11.3574 6.84375 11.2949C6.91406 11.2285 6.94922 11.1445 6.94922 11.043V4.66211C6.94922 4.56055 6.91406 4.47852 6.84375 4.41602C6.77344 4.34961 6.68359 4.31641 6.57422 4.31641C6.46094 4.31641 6.36914 4.34961 6.29883 4.41602C6.22852 4.47852 6.19336 4.56055 6.19336 4.66211V11.043C6.19336 11.1445 6.22852 11.2285 6.29883 11.2949C6.36914 11.3574 6.46094 11.3887 6.57422 11.3887ZM8.42578 11.3887C8.53125 11.3887 8.61719 11.3574 8.68359 11.2949C8.75391 11.2324 8.78906 11.1484 8.78906 11.043L8.9707 4.66211C8.9707 4.56055 8.9375 4.47852 8.87109 4.41602C8.80469 4.34961 8.71484 4.31641 8.60156 4.31641C8.5 4.31641 8.41406 4.34766 8.34375 4.41016C8.27734 4.47266 8.24219 4.55664 8.23828 4.66211L8.0625 11.043C8.05859 11.1445 8.08984 11.2285 8.15625 11.2949C8.22266 11.3574 8.3125 11.3887 8.42578 11.3887Z" fill="#EB5757"/>
</svg>
