<svg width="9" height="8" viewBox="0 0 9 8" fill="none" xmlns="http://www.w3.org/2000/svg">
<path d="M3.1748 7.77783C2.94043 7.77783 2.74121 7.67676 2.57715 7.47461L0.300781 4.6709C0.236328 4.59473 0.189453 4.52002 0.160156 4.44678C0.133789 4.37354 0.120605 4.29736 0.120605 4.21826C0.120605 4.04248 0.179199 3.89746 0.296387 3.7832C0.413574 3.66895 0.561523 3.61182 0.740234 3.61182C0.942383 3.61182 1.1123 3.69824 1.25 3.87109L3.15723 6.28809L6.87939 0.390625C6.95557 0.273437 7.03467 0.191406 7.1167 0.144531C7.19873 0.0947266 7.30127 0.0698242 7.42432 0.0698242C7.60303 0.0698242 7.74951 0.125488 7.86377 0.236816C7.97803 0.348145 8.03516 0.490234 8.03516 0.663086C8.03516 0.733398 8.02344 0.803711 8 0.874023C7.97656 0.944336 7.93994 1.01758 7.89014 1.09375L3.77686 7.45703C3.63623 7.6709 3.43555 7.77783 3.1748 7.77783Z" fill="white"/>
</svg>
