<svg width="10" height="10" viewBox="0 0 10 10" fill="none" xmlns="http://www.w3.org/2000/svg">
<path d="M9.9248 7.354C9.9248 7.48877 9.87793 7.60156 9.78418 7.69238C9.69336 7.78027 9.57178 7.82422 9.41943 7.82422H2.52881C2.40869 7.82422 2.31201 7.78906 2.23877 7.71875C2.16846 7.64551 2.1333 7.54883 2.1333 7.42871V0.555664C2.1333 0.40625 2.18164 0.284668 2.27832 0.190918C2.375 0.097168 2.49219 0.050293 2.62988 0.050293C2.77051 0.050293 2.8877 0.097168 2.98145 0.190918C3.07812 0.284668 3.12646 0.40625 3.12646 0.555664V6.75195C3.12646 6.83691 3.16748 6.87939 3.24951 6.87939H9.41943C9.57178 6.87939 9.69336 6.92334 9.78418 7.01123C9.87793 7.09912 9.9248 7.21338 9.9248 7.354ZM0.120605 2.57715C0.120605 2.44238 0.166016 2.32959 0.256836 2.23877C0.350586 2.14795 0.472168 2.10254 0.621582 2.10254H7.521C7.63818 2.10254 7.73193 2.13916 7.80225 2.2124C7.87549 2.28564 7.91211 2.38232 7.91211 2.50244V9.37109C7.91211 9.52344 7.86377 9.64502 7.76709 9.73584C7.67334 9.82959 7.55615 9.87646 7.41553 9.87646C7.27783 9.87646 7.16064 9.82959 7.06396 9.73584C6.96729 9.64502 6.91895 9.52344 6.91895 9.37109V3.1748C6.91895 3.09277 6.87793 3.05176 6.7959 3.05176H0.621582C0.472168 3.05176 0.350586 3.00781 0.256836 2.91992C0.166016 2.8291 0.120605 2.71484 0.120605 2.57715Z" fill="white"/>
</svg>
