<svg width="11" height="6" viewBox="0 0 11 6" fill="none" xmlns="http://www.w3.org/2000/svg">
<path d="M5.58594 5.89258C5.4375 5.89258 5.30469 5.83594 5.1875 5.72266L0.652344 1.08203C0.601562 1.03125 0.5625 0.974609 0.535156 0.912109C0.507812 0.845703 0.494141 0.775391 0.494141 0.701172C0.494141 0.599609 0.517578 0.507812 0.564453 0.425781C0.611328 0.34375 0.673828 0.279297 0.751953 0.232422C0.833984 0.185547 0.925781 0.162109 1.02734 0.162109C1.17578 0.162109 1.30273 0.212891 1.4082 0.314453L5.89648 4.90234H5.26953L9.75781 0.314453C9.86719 0.212891 9.99414 0.162109 10.1387 0.162109C10.2402 0.162109 10.3301 0.185547 10.4082 0.232422C10.4902 0.279297 10.5547 0.34375 10.6016 0.425781C10.6484 0.507812 10.6719 0.599609 10.6719 0.701172C10.6719 0.845703 10.6191 0.970703 10.5137 1.07617L5.97852 5.72266C5.92773 5.77734 5.86719 5.82031 5.79688 5.85156C5.73047 5.87891 5.66016 5.89258 5.58594 5.89258Z" fill="black"/>
</svg>
