<svg width="10" height="11" viewBox="0 0 10 11" fill="none" xmlns="http://www.w3.org/2000/svg">
<path d="M2.9707 2.32031V1.50293C2.9707 1.14258 3.08057 0.861328 3.30029 0.65918C3.52295 0.457031 3.83203 0.355957 4.22754 0.355957H5.89746C6.29297 0.355957 6.60059 0.457031 6.82031 0.65918C7.04004 0.861328 7.1499 1.14258 7.1499 1.50293V2.32031H6.16553V1.54248C6.16553 1.45166 6.13623 1.37988 6.07764 1.32715C6.01904 1.27148 5.93848 1.24365 5.83594 1.24365H4.29346C4.19092 1.24365 4.10889 1.27148 4.04736 1.32715C3.98877 1.37988 3.95947 1.45166 3.95947 1.54248V2.32031H2.9707ZM1.10742 3.01025C0.987305 3.01025 0.884766 2.96924 0.799805 2.88721C0.714844 2.80518 0.672363 2.70264 0.672363 2.57959C0.672363 2.45947 0.714844 2.3584 0.799805 2.27637C0.884766 2.19434 0.987305 2.15332 1.10742 2.15332H9.02197C9.14502 2.15332 9.24756 2.19434 9.32959 2.27637C9.41455 2.35547 9.45703 2.45654 9.45703 2.57959C9.45703 2.70264 9.41455 2.80518 9.32959 2.88721C9.24756 2.96924 9.14502 3.01025 9.02197 3.01025H1.10742ZM8.45068 2.91797L8.16943 9.31641C8.15479 9.62988 8.05957 9.86719 7.88379 10.0283C7.70801 10.1924 7.46045 10.2744 7.14111 10.2744H2.98828C2.67188 10.2744 2.42432 10.1924 2.24561 10.0283C2.06982 9.86719 1.97607 9.62988 1.96436 9.31641L1.68311 2.91797H8.45068ZM3.64746 8.87695C3.74707 8.87695 3.82617 8.84766 3.88477 8.78906C3.94336 8.73047 3.97119 8.6543 3.96826 8.56055L3.83643 3.96387C3.8335 3.87012 3.80127 3.79541 3.73975 3.73975C3.68115 3.68408 3.60498 3.65625 3.51123 3.65625C3.41162 3.65625 3.33252 3.68555 3.27393 3.74414C3.21826 3.7998 3.19043 3.87451 3.19043 3.96826L3.32666 8.56494C3.32666 8.65869 3.35596 8.73486 3.41455 8.79346C3.47607 8.84912 3.55371 8.87695 3.64746 8.87695ZM5.06689 8.87695C5.16357 8.87695 5.24121 8.84912 5.2998 8.79346C5.36133 8.73486 5.39209 8.65869 5.39209 8.56494V3.96387C5.39209 3.87305 5.36133 3.7998 5.2998 3.74414C5.24121 3.68555 5.16357 3.65625 5.06689 3.65625C4.96729 3.65625 4.88672 3.68555 4.8252 3.74414C4.7666 3.7998 4.7373 3.87305 4.7373 3.96387V8.56494C4.7373 8.65869 4.7666 8.73486 4.8252 8.79346C4.88672 8.84912 4.96729 8.87695 5.06689 8.87695ZM6.48193 8.87695C6.57568 8.87695 6.65186 8.84912 6.71045 8.79346C6.77197 8.73486 6.8042 8.65869 6.80713 8.56494L6.93896 3.96826C6.93896 3.87451 6.90967 3.7998 6.85107 3.74414C6.79541 3.68555 6.71777 3.65625 6.61816 3.65625C6.52441 3.65625 6.44678 3.68408 6.38525 3.73975C6.32666 3.79541 6.2959 3.87158 6.29297 3.96826L6.16113 8.56055C6.1582 8.6543 6.18604 8.73047 6.24463 8.78906C6.30322 8.84766 6.38232 8.87695 6.48193 8.87695Z" fill="white"/>
</svg>
