<svg width="13" height="11" viewBox="0 0 13 11" fill="none" xmlns="http://www.w3.org/2000/svg">
<path d="M10.9248 8.354C10.9248 8.48877 10.8779 8.60156 10.7842 8.69238C10.6934 8.78027 10.5718 8.82422 10.4194 8.82422H3.52881C3.40869 8.82422 3.31201 8.78906 3.23877 8.71875C3.16846 8.64551 3.1333 8.54883 3.1333 8.42871V1.55566C3.1333 1.40625 3.18164 1.28467 3.27832 1.19092C3.375 1.09717 3.49219 1.05029 3.62988 1.05029C3.77051 1.05029 3.8877 1.09717 3.98145 1.19092C4.07812 1.28467 4.12646 1.40625 4.12646 1.55566V7.75195C4.12646 7.83691 4.16748 7.87939 4.24951 7.87939H10.4194C10.5718 7.87939 10.6934 7.92334 10.7842 8.01123C10.8779 8.09912 10.9248 8.21338 10.9248 8.354ZM1.12061 3.57715C1.12061 3.44238 1.16602 3.32959 1.25684 3.23877C1.35059 3.14795 1.47217 3.10254 1.62158 3.10254H8.521C8.63818 3.10254 8.73193 3.13916 8.80225 3.2124C8.87549 3.28564 8.91211 3.38232 8.91211 3.50244V10.3711C8.91211 10.5234 8.86377 10.645 8.76709 10.7358C8.67334 10.8296 8.55615 10.8765 8.41553 10.8765C8.27783 10.8765 8.16064 10.8296 8.06396 10.7358C7.96729 10.645 7.91895 10.5234 7.91895 10.3711V4.1748C7.91895 4.09277 7.87793 4.05176 7.7959 4.05176H1.62158C1.47217 4.05176 1.35059 4.00781 1.25684 3.91992C1.16602 3.8291 1.12061 3.71484 1.12061 3.57715Z" fill="white"/>
<path d="M2 10L10 2" stroke="#2F2F2F" stroke-width="2" stroke-linecap="round"/>
<path d="M2 10L10 2" stroke="#EB5757" stroke-linecap="round"/>
</svg>
