<svg width="37" height="30" viewBox="0 0 37 30" fill="none" xmlns="http://www.w3.org/2000/svg">
<path d="M12.6592 1.21311L13.653 2.03279C14.4677 2.7377 15.1357 3 16.2435 3H31.8842C35.2731 3 37 4.70491 37 8.08196V24.9181C37 28.2951 35.2893 30 32.373 30H5.11582C1.7107 30 0 28.3114 0 24.9181V4.93442C0 1.63934 1.64553 0 4.4967 0H9.14005C10.753 0 11.5839 0.295081 12.6592 1.21311ZM16.4716 22.7049C16.4716 23.6065 17.27 24.3443 18.1661 24.3443C19.0783 24.3443 19.8604 23.623 19.8604 22.7049C19.8604 21.7869 19.0947 21.0655 18.1661 21.0655C17.2537 21.0655 16.4716 21.8033 16.4716 22.7049ZM13.816 11.082C13.7345 11.3279 13.6693 11.5902 13.6693 11.8688C13.6693 12.5738 14.2396 12.9508 14.7609 12.9508C15.2823 12.9508 15.6244 12.6885 15.9177 12.3279L16.1947 11.9508C16.7487 11.0164 17.5631 10.5082 18.5897 10.5082C20.0071 10.5082 20.9357 11.3115 20.9357 12.5082C20.9357 13.5738 20.284 14.082 18.8992 15.0492C17.7914 15.8361 16.944 16.6557 16.944 18.2131C16.944 18.2787 16.944 18.3442 16.944 18.4098C16.944 19.2458 17.4003 19.6558 18.1986 19.6558C18.9969 19.6558 19.4694 19.1639 19.4694 18.5247C19.4694 18.4755 19.4694 18.4098 19.4694 18.3442C19.4694 17.459 19.9746 16.9017 21.0662 16.1967C22.5813 15.1967 23.6729 14.2623 23.6729 12.3934C23.6729 9.77048 21.3593 8.37704 18.6874 8.37704C15.9991 8.37704 14.2396 9.63935 13.816 11.082Z" fill="black"/>
</svg>
