<svg width="24" height="23" viewBox="0 0 24 23" fill="none" xmlns="http://www.w3.org/2000/svg">
<path d="M11.5055 23C9.93173 23 8.44988 22.6985 7.05995 22.0954C5.67002 21.4998 4.44556 20.6724 3.38657 19.6134C2.32758 18.5544 1.49656 17.3337 0.893525 15.9511C0.297842 14.5612 0 13.0756 0 11.4945C0 9.9207 0.297842 8.44253 0.893525 7.05995C1.49656 5.67002 2.3239 4.44556 3.37554 3.38657C4.43453 2.32758 5.65899 1.50024 7.04892 0.904556C8.43885 0.301519 9.9207 0 11.4945 0C13.0683 0 14.5501 0.301519 15.94 0.904556C17.3373 1.50024 18.5618 2.32758 19.6134 3.38657C20.6724 4.44556 21.5034 5.67002 22.1065 7.05995C22.7095 8.44253 23.011 9.9207 23.011 11.4945C23.011 13.0756 22.7095 14.5612 22.1065 15.9511C21.5034 17.3337 20.6724 18.5544 19.6134 19.6134C18.5618 20.6724 17.341 21.4998 15.9511 22.0954C14.5612 22.6985 13.0793 23 11.5055 23ZM16.5909 12.024C16.5909 11.1268 16.3776 10.3105 15.9511 9.57506C15.5319 8.83229 14.973 8.23293 14.2743 7.77698C13.5831 7.32102 12.8293 7.07098 12.0129 7.02686C11.9615 7.02686 11.91 7.02686 11.8585 7.02686C11.8144 7.02686 11.7703 7.02686 11.7261 7.02686L12.2998 6.43117C12.3586 6.35763 12.4101 6.27306 12.4542 6.17746C12.5057 6.08185 12.5314 5.96787 12.5314 5.83549C12.5314 5.62222 12.4542 5.43469 12.2998 5.2729C12.1453 5.10376 11.9394 5.01918 11.682 5.01918C11.5496 5.01918 11.4283 5.0486 11.318 5.10743C11.2077 5.16627 11.1157 5.23613 11.0422 5.31703L8.93525 7.44604C8.77346 7.61519 8.69257 7.82478 8.69257 8.07482C8.69257 8.32486 8.77346 8.53078 8.93525 8.69257L11.0643 10.8106C11.2261 10.987 11.4246 11.0753 11.66 11.0753C11.9026 11.0753 12.1086 10.9981 12.2777 10.8436C12.4468 10.6892 12.5314 10.4833 12.5314 10.2259C12.5314 10.0126 12.4689 9.83981 12.3439 9.70743L11.5496 8.90216C11.6526 8.91687 11.7739 8.9279 11.9137 8.93525C12.4432 8.95731 12.9212 9.11175 13.3477 9.39856C13.7743 9.68537 14.1125 10.0604 14.3626 10.5237C14.6126 10.987 14.7376 11.4945 14.7376 12.046C14.7376 12.6491 14.5906 13.197 14.2964 13.6897C14.0096 14.1751 13.6198 14.5648 13.1271 14.859C12.6417 15.1532 12.1012 15.3002 11.5055 15.3002C10.9025 15.3002 10.3546 15.1532 9.86187 14.859C9.3765 14.5648 8.99041 14.1751 8.7036 13.6897C8.41679 13.197 8.27338 12.6491 8.27338 12.046C8.27338 11.796 8.18145 11.5827 7.9976 11.4062C7.81375 11.2224 7.59313 11.1305 7.33573 11.1305C7.07834 11.1305 6.85771 11.2224 6.67386 11.4062C6.49736 11.5827 6.40911 11.796 6.40911 12.046C6.40911 12.9874 6.63709 13.8441 7.09305 14.6163C7.55635 15.3885 8.17042 16.0062 8.93525 16.4695C9.70743 16.9329 10.5642 17.1645 11.5055 17.1645C12.4395 17.1645 13.2926 16.9329 14.0647 16.4695C14.8369 16.0062 15.451 15.3848 15.907 14.6053C16.3629 13.8257 16.5909 12.9653 16.5909 12.024Z" fill="white"/>
</svg>
