<svg width="14" height="14" viewBox="0 0 14 14" fill="none" xmlns="http://www.w3.org/2000/svg">
<path d="M6.81055 12.6172C6.74023 12.6172 6.67188 12.6152 6.60547 12.6113C6.53906 12.6074 6.46875 12.6016 6.39453 12.5938L6.07227 13.209C6.0293 13.2871 5.96875 13.3457 5.89062 13.3848C5.81641 13.4277 5.73242 13.4434 5.63867 13.4316C5.54492 13.416 5.4668 13.375 5.4043 13.3086C5.3418 13.2422 5.30469 13.1621 5.29297 13.0684L5.19336 12.3887C5.06445 12.3535 4.93555 12.3105 4.80664 12.2598C4.67773 12.2129 4.55078 12.1641 4.42578 12.1133L3.92188 12.5645C3.85547 12.627 3.77734 12.6641 3.6875 12.6758C3.60156 12.6875 3.51562 12.6699 3.42969 12.623C3.34375 12.5762 3.2832 12.5117 3.24805 12.4297C3.2168 12.3477 3.21094 12.2598 3.23047 12.166L3.37695 11.4922C3.26758 11.418 3.1582 11.3359 3.04883 11.2461C2.94336 11.1602 2.83984 11.0684 2.73828 10.9707L2.11133 11.2344C2.02148 11.2695 1.93359 11.2773 1.84766 11.2578C1.76562 11.2383 1.69141 11.1895 1.625 11.1113C1.56641 11.0449 1.5332 10.9668 1.52539 10.877C1.52148 10.7871 1.54297 10.7031 1.58984 10.625L1.95898 10.0332C1.88477 9.92383 1.8125 9.81055 1.74219 9.69336C1.67578 9.57227 1.61328 9.44922 1.55469 9.32422L0.869141 9.35938C0.771484 9.36328 0.685547 9.3418 0.611328 9.29492C0.537109 9.24414 0.484375 9.17383 0.453125 9.08398C0.425781 8.99414 0.423828 8.9082 0.447266 8.82617C0.474609 8.74023 0.525391 8.66797 0.599609 8.60938L1.13867 8.1875C1.10352 8.05469 1.07227 7.92188 1.04492 7.78906C1.02148 7.65234 1.00586 7.51367 0.998047 7.37305L0.341797 7.16211C0.146484 7.09961 0.0488281 6.96875 0.0488281 6.76953C0.0488281 6.57031 0.146484 6.4375 0.341797 6.37109L0.998047 6.16016C1.00586 6.01953 1.02148 5.88281 1.04492 5.75C1.07227 5.61719 1.10352 5.48633 1.13867 5.35742L0.59375 4.92969C0.523438 4.87109 0.474609 4.80078 0.447266 4.71875C0.419922 4.63672 0.421875 4.55078 0.453125 4.46094C0.484375 4.37109 0.537109 4.30273 0.611328 4.25586C0.685547 4.20508 0.771484 4.18164 0.869141 4.18555L1.55469 4.20898C1.61328 4.08398 1.67578 3.96289 1.74219 3.8457C1.8125 3.72852 1.88477 3.61328 1.95898 3.5L1.58984 2.91406C1.54297 2.83594 1.52148 2.75391 1.52539 2.66797C1.5332 2.57813 1.56641 2.5 1.625 2.43359C1.69141 2.35547 1.76562 2.30664 1.84766 2.28711C1.93359 2.26367 2.02148 2.27148 2.11133 2.31055L2.74414 2.56836C2.8418 2.47461 2.94336 2.38477 3.04883 2.29883C3.1582 2.20898 3.26758 2.12305 3.37695 2.04102L3.23047 1.37891C3.20703 1.28125 3.21289 1.19141 3.24805 1.10938C3.2832 1.02734 3.3418 0.964844 3.42383 0.921875C3.50977 0.875 3.59766 0.857422 3.6875 0.869141C3.77734 0.876953 3.85547 0.914063 3.92188 0.980469L4.42578 1.43164C4.55078 1.37695 4.67773 1.32617 4.80664 1.2793C4.93555 1.23242 5.06445 1.18945 5.19336 1.15039L5.29297 0.476562C5.30469 0.382812 5.3418 0.304688 5.4043 0.242188C5.4668 0.175781 5.54297 0.132812 5.63281 0.113281C5.73047 0.101562 5.81836 0.115234 5.89648 0.154297C5.97461 0.193359 6.0332 0.251953 6.07227 0.330078L6.39453 0.945312C6.46875 0.941406 6.53906 0.9375 6.60547 0.933594C6.67188 0.929687 6.74023 0.927734 6.81055 0.927734C6.88086 0.927734 6.94727 0.929687 7.00977 0.933594C7.07617 0.9375 7.14648 0.941406 7.2207 0.945312L7.54297 0.330078C7.58203 0.251953 7.64062 0.193359 7.71875 0.154297C7.79688 0.115234 7.88281 0.101562 7.97656 0.113281C8.07031 0.128906 8.14844 0.169922 8.21094 0.236328C8.27344 0.302734 8.31055 0.382812 8.32227 0.476562L8.41602 1.15039C8.54492 1.18945 8.67383 1.23242 8.80273 1.2793C8.93555 1.32617 9.0625 1.37695 9.18359 1.43164L9.69336 0.980469C9.76367 0.914063 9.8418 0.876953 9.92773 0.869141C10.0137 0.857422 10.0996 0.875 10.1855 0.921875C10.2676 0.964844 10.3262 1.02734 10.3613 1.10938C10.3965 1.19141 10.4023 1.28125 10.3789 1.37891L10.2383 2.04102C10.3477 2.12305 10.4551 2.20898 10.5605 2.29883C10.6699 2.38477 10.7734 2.47461 10.8711 2.56836L11.498 2.31055C11.5879 2.27148 11.6758 2.26367 11.7617 2.28711C11.8477 2.30664 11.9238 2.35547 11.9902 2.43359C12.0449 2.5 12.0762 2.57813 12.084 2.66797C12.0918 2.75391 12.0703 2.83594 12.0195 2.91406L11.6562 3.5C11.7344 3.61328 11.8047 3.72852 11.8672 3.8457C11.9336 3.96289 11.998 4.08398 12.0605 4.20898L12.752 4.18555C12.8418 4.18164 12.9238 4.20508 12.998 4.25586C13.0762 4.30273 13.1309 4.37109 13.1621 4.46094C13.1895 4.55078 13.1895 4.63672 13.1621 4.71875C13.1387 4.80078 13.0898 4.87109 13.0156 4.92969L12.4766 5.35156C12.5078 5.48438 12.5371 5.61719 12.5645 5.75C12.5918 5.88281 12.6113 6.02148 12.623 6.16602L13.2734 6.37109C13.3633 6.40234 13.4336 6.45312 13.4844 6.52344C13.5391 6.59375 13.5664 6.67578 13.5664 6.76953C13.5664 6.86328 13.5391 6.94531 13.4844 7.01562C13.4336 7.08594 13.3633 7.13477 13.2734 7.16211L12.623 7.37305C12.6113 7.51367 12.5918 7.65234 12.5645 7.78906C12.5371 7.92188 12.5078 8.05469 12.4766 8.1875L13.0156 8.60938C13.0898 8.66797 13.1387 8.74023 13.1621 8.82617C13.1895 8.9082 13.1895 8.99414 13.1621 9.08398C13.1309 9.17383 13.0762 9.24414 12.998 9.29492C12.9238 9.3418 12.8418 9.36328 12.752 9.35938L12.0605 9.32422C11.998 9.44922 11.9336 9.57227 11.8672 9.69336C11.8047 9.81055 11.7344 9.92383 11.6562 10.0332L12.0195 10.625C12.0742 10.7031 12.0957 10.7871 12.084 10.877C12.0762 10.9668 12.0449 11.0449 11.9902 11.1113C11.9238 11.1895 11.8477 11.2383 11.7617 11.2578C11.6758 11.2812 11.5898 11.2734 11.5039 11.2344L10.8711 10.9707C10.7734 11.0684 10.6699 11.1602 10.5605 11.2461C10.4551 11.3359 10.3477 11.418 10.2383 11.4922L10.3789 12.166C10.4219 12.3691 10.3594 12.5215 10.1914 12.623C10.1055 12.6699 10.0176 12.6875 9.92773 12.6758C9.83789 12.6641 9.75977 12.627 9.69336 12.5645L9.18359 12.1133C9.0625 12.1641 8.9375 12.2129 8.80859 12.2598C8.67969 12.3105 8.54883 12.3535 8.41602 12.3887L8.32227 13.0684C8.31055 13.1621 8.27344 13.2402 8.21094 13.3027C8.14844 13.3691 8.07422 13.4121 7.98828 13.4316C7.88672 13.4434 7.79688 13.4277 7.71875 13.3848C7.64062 13.3457 7.58008 13.2852 7.53711 13.2031L7.2207 12.5938C7.14648 12.6016 7.07617 12.6074 7.00977 12.6113C6.94727 12.6152 6.88086 12.6172 6.81055 12.6172ZM6.81055 11.4277C7.45898 11.4277 8.06055 11.3066 8.61523 11.0645C9.17383 10.8262 9.66211 10.4941 10.0801 10.0684C10.502 9.64258 10.8301 9.14844 11.0645 8.58594C11.3027 8.02344 11.4219 7.41992 11.4219 6.77539C11.4219 6.12695 11.3027 5.52148 11.0645 4.95898C10.8301 4.39648 10.502 3.90234 10.0801 3.47656C9.66211 3.05078 9.17383 2.71875 8.61523 2.48047C8.06055 2.23828 7.45898 2.11719 6.81055 2.11719C6.16211 2.11719 5.55859 2.23828 5 2.48047C4.44141 2.71875 3.95312 3.05078 3.53516 3.47656C3.11719 3.90234 2.78906 4.39648 2.55078 4.95898C2.31641 5.52148 2.19922 6.12695 2.19922 6.77539C2.19922 7.41992 2.31641 8.02344 2.55078 8.58594C2.78906 9.14844 3.11719 9.64258 3.53516 10.0684C3.95312 10.4941 4.44141 10.8262 5 11.0645C5.55859 11.3066 6.16211 11.4277 6.81055 11.4277ZM5.60938 5.75586L3.6875 2.45703L4.60156 1.98242L6.48242 5.21094L5.60938 5.75586ZM8.29883 7.27344V6.24805H12.0547L12.0605 7.27344H8.29883ZM6.47656 8.33398L4.52539 11.5391L3.62305 11.0527L5.61523 7.77148L6.47656 8.33398ZM6.79883 8.48633C6.48633 8.48633 6.19922 8.41016 5.9375 8.25781C5.67969 8.10156 5.47461 7.89453 5.32227 7.63672C5.16992 7.37891 5.09375 7.0918 5.09375 6.77539C5.09375 6.45898 5.16992 6.17188 5.32227 5.91406C5.47461 5.65625 5.67969 5.45117 5.9375 5.29883C6.19922 5.14648 6.48633 5.07031 6.79883 5.07031C7.11523 5.07031 7.40234 5.14648 7.66016 5.29883C7.91797 5.45117 8.12305 5.65625 8.27539 5.91406C8.42773 6.17188 8.50391 6.45898 8.50391 6.77539C8.50391 7.0918 8.42773 7.37891 8.27539 7.63672C8.12305 7.89453 7.91797 8.10156 7.66016 8.25781C7.40234 8.41016 7.11523 8.48633 6.79883 8.48633ZM6.79883 7.48438C6.99805 7.48438 7.16406 7.41602 7.29688 7.2793C7.43359 7.14258 7.50195 6.97461 7.50195 6.77539C7.50195 6.58008 7.43359 6.41406 7.29688 6.27734C7.16406 6.14062 6.99805 6.07227 6.79883 6.07227C6.59961 6.07227 6.43164 6.14062 6.29492 6.27734C6.16211 6.41406 6.0957 6.58008 6.0957 6.77539C6.0957 6.97461 6.16211 7.14258 6.29492 7.2793C6.43164 7.41602 6.59961 7.48438 6.79883 7.48438Z" fill="white"/>
</svg>
